<mxfile host="app.diagrams.net" agent="Mozilla/5.0 (X11; Linux x86_64) AppleWebKit/537.36 (KHTML, like Gecko) Chrome/136.0.0.0 Safari/537.36" version="27.0.2">
  <diagram name="Page-1" id="XAErOg8HqcMZcCf5fAtF">
    <mxGraphModel dx="1167" dy="615" grid="1" gridSize="10" guides="1" tooltips="1" connect="1" arrows="1" fold="1" page="1" pageScale="1" pageWidth="850" pageHeight="1100" math="0" shadow="0">
      <root>
        <mxCell id="0" />
        <mxCell id="1" parent="0" />
        <mxCell id="a-pU14ZPofYEpcfv-Zim-31" style="edgeStyle=orthogonalEdgeStyle;rounded=0;orthogonalLoop=1;jettySize=auto;html=1;exitX=0.5;exitY=1;exitDx=0;exitDy=0;entryX=0.5;entryY=0;entryDx=0;entryDy=0;" edge="1" parent="1" source="a-pU14ZPofYEpcfv-Zim-1" target="a-pU14ZPofYEpcfv-Zim-4">
          <mxGeometry relative="1" as="geometry" />
        </mxCell>
        <mxCell id="a-pU14ZPofYEpcfv-Zim-1" value="dep_id" style="rounded=0;whiteSpace=wrap;html=1;" vertex="1" parent="1">
          <mxGeometry x="90" y="50" width="120" height="60" as="geometry" />
        </mxCell>
        <mxCell id="a-pU14ZPofYEpcfv-Zim-2" value="dep_name" style="rounded=0;whiteSpace=wrap;html=1;" vertex="1" parent="1">
          <mxGeometry x="210" y="50" width="120" height="60" as="geometry" />
        </mxCell>
        <mxCell id="a-pU14ZPofYEpcfv-Zim-3" value="dep_name" style="rounded=0;whiteSpace=wrap;html=1;" vertex="1" parent="1">
          <mxGeometry x="210" y="50" width="121" height="60" as="geometry" />
        </mxCell>
        <mxCell id="a-pU14ZPofYEpcfv-Zim-4" value="dep_id" style="rounded=0;whiteSpace=wrap;html=1;" vertex="1" parent="1">
          <mxGeometry x="80" y="150" width="121" height="60" as="geometry" />
        </mxCell>
        <mxCell id="a-pU14ZPofYEpcfv-Zim-5" value="location" style="rounded=0;whiteSpace=wrap;html=1;" vertex="1" parent="1">
          <mxGeometry x="201" y="150" width="121" height="60" as="geometry" />
        </mxCell>
        <mxCell id="a-pU14ZPofYEpcfv-Zim-6" value="" style="endArrow=none;dashed=1;html=1;dashPattern=1 3;strokeWidth=2;rounded=0;" edge="1" parent="1">
          <mxGeometry width="50" height="50" relative="1" as="geometry">
            <mxPoint x="600" y="350" as="sourcePoint" />
            <mxPoint x="640" y="350" as="targetPoint" />
          </mxGeometry>
        </mxCell>
        <mxCell id="a-pU14ZPofYEpcfv-Zim-7" value="" style="endArrow=none;dashed=1;html=1;dashPattern=1 3;strokeWidth=2;rounded=0;" edge="1" parent="1">
          <mxGeometry width="50" height="50" relative="1" as="geometry">
            <mxPoint x="250" y="190" as="sourcePoint" />
            <mxPoint x="290" y="190" as="targetPoint" />
          </mxGeometry>
        </mxCell>
        <mxCell id="a-pU14ZPofYEpcfv-Zim-8" value="" style="endArrow=none;dashed=1;html=1;dashPattern=1 3;strokeWidth=2;rounded=0;" edge="1" parent="1">
          <mxGeometry width="50" height="50" relative="1" as="geometry">
            <mxPoint x="120.5" y="192" as="sourcePoint" />
            <mxPoint x="160.5" y="192" as="targetPoint" />
          </mxGeometry>
        </mxCell>
        <mxCell id="a-pU14ZPofYEpcfv-Zim-9" value="" style="endArrow=none;html=1;rounded=0;" edge="1" parent="1">
          <mxGeometry width="50" height="50" relative="1" as="geometry">
            <mxPoint x="590" y="330" as="sourcePoint" />
            <mxPoint x="640" y="330" as="targetPoint" />
          </mxGeometry>
        </mxCell>
        <mxCell id="a-pU14ZPofYEpcfv-Zim-10" value="" style="endArrow=none;html=1;rounded=0;entryX=0.736;entryY=0.867;entryDx=0;entryDy=0;entryPerimeter=0;" edge="1" parent="1" target="a-pU14ZPofYEpcfv-Zim-5">
          <mxGeometry width="50" height="50" relative="1" as="geometry">
            <mxPoint x="115.5" y="202" as="sourcePoint" />
            <mxPoint x="165.5" y="202" as="targetPoint" />
          </mxGeometry>
        </mxCell>
        <mxCell id="a-pU14ZPofYEpcfv-Zim-11" value="p_num" style="rounded=0;whiteSpace=wrap;html=1;" vertex="1" parent="1">
          <mxGeometry x="80" y="470" width="120" height="60" as="geometry" />
        </mxCell>
        <mxCell id="a-pU14ZPofYEpcfv-Zim-12" value="ssn" style="rounded=0;whiteSpace=wrap;html=1;" vertex="1" parent="1">
          <mxGeometry x="331" y="50" width="120" height="60" as="geometry" />
        </mxCell>
        <mxCell id="a-pU14ZPofYEpcfv-Zim-15" value="" style="endArrow=none;html=1;rounded=0;" edge="1" parent="1">
          <mxGeometry width="50" height="50" relative="1" as="geometry">
            <mxPoint x="125" y="94" as="sourcePoint" />
            <mxPoint x="175" y="94" as="targetPoint" />
          </mxGeometry>
        </mxCell>
        <mxCell id="a-pU14ZPofYEpcfv-Zim-17" value="" style="endArrow=none;dashed=1;html=1;dashPattern=1 3;strokeWidth=2;rounded=0;" edge="1" parent="1">
          <mxGeometry width="50" height="50" relative="1" as="geometry">
            <mxPoint x="370" y="90" as="sourcePoint" />
            <mxPoint x="410" y="90" as="targetPoint" />
          </mxGeometry>
        </mxCell>
        <mxCell id="a-pU14ZPofYEpcfv-Zim-30" style="edgeStyle=orthogonalEdgeStyle;rounded=0;orthogonalLoop=1;jettySize=auto;html=1;exitX=0.5;exitY=1;exitDx=0;exitDy=0;entryX=0.5;entryY=0;entryDx=0;entryDy=0;" edge="1" parent="1">
          <mxGeometry relative="1" as="geometry">
            <mxPoint x="391" y="40" as="targetPoint" />
            <mxPoint x="140" y="280" as="sourcePoint" />
            <Array as="points">
              <mxPoint x="140" y="300" />
              <mxPoint x="41" y="300" />
              <mxPoint x="41" y="10" />
              <mxPoint x="391" y="10" />
            </Array>
          </mxGeometry>
        </mxCell>
        <mxCell id="a-pU14ZPofYEpcfv-Zim-18" value="ssn" style="rounded=0;whiteSpace=wrap;html=1;" vertex="1" parent="1">
          <mxGeometry x="73" y="230" width="120" height="60" as="geometry" />
        </mxCell>
        <mxCell id="a-pU14ZPofYEpcfv-Zim-19" value="birthdate" style="rounded=0;whiteSpace=wrap;html=1;" vertex="1" parent="1">
          <mxGeometry x="193" y="230" width="120" height="60" as="geometry" />
        </mxCell>
        <mxCell id="a-pU14ZPofYEpcfv-Zim-20" value="Fname" style="rounded=0;whiteSpace=wrap;html=1;" vertex="1" parent="1">
          <mxGeometry x="313" y="230" width="120" height="60" as="geometry" />
        </mxCell>
        <mxCell id="a-pU14ZPofYEpcfv-Zim-22" value="" style="endArrow=none;html=1;rounded=0;" edge="1" parent="1">
          <mxGeometry width="50" height="50" relative="1" as="geometry">
            <mxPoint x="115.5" y="270" as="sourcePoint" />
            <mxPoint x="165.5" y="270" as="targetPoint" />
          </mxGeometry>
        </mxCell>
        <mxCell id="a-pU14ZPofYEpcfv-Zim-23" value="Lname" style="rounded=0;whiteSpace=wrap;html=1;" vertex="1" parent="1">
          <mxGeometry x="433" y="230" width="120" height="60" as="geometry" />
        </mxCell>
        <mxCell id="a-pU14ZPofYEpcfv-Zim-24" value="gender" style="rounded=0;whiteSpace=wrap;html=1;" vertex="1" parent="1">
          <mxGeometry x="553" y="230" width="120" height="60" as="geometry" />
        </mxCell>
        <mxCell id="a-pU14ZPofYEpcfv-Zim-32" value="name" style="rounded=0;whiteSpace=wrap;html=1;" vertex="1" parent="1">
          <mxGeometry x="80" y="360" width="120" height="60" as="geometry" />
        </mxCell>
        <mxCell id="a-pU14ZPofYEpcfv-Zim-33" value="birthdate" style="rounded=0;whiteSpace=wrap;html=1;" vertex="1" parent="1">
          <mxGeometry x="200" y="360" width="120" height="60" as="geometry" />
        </mxCell>
        <mxCell id="a-pU14ZPofYEpcfv-Zim-34" value="departments" style="text;html=1;align=center;verticalAlign=middle;resizable=0;points=[];autosize=1;strokeColor=none;fillColor=none;" vertex="1" parent="1">
          <mxGeometry x="45" y="18" width="90" height="30" as="geometry" />
        </mxCell>
        <mxCell id="a-pU14ZPofYEpcfv-Zim-36" value="department_locations" style="text;html=1;align=center;verticalAlign=middle;resizable=0;points=[];autosize=1;strokeColor=none;fillColor=none;" vertex="1" parent="1">
          <mxGeometry x="20" y="120" width="140" height="30" as="geometry" />
        </mxCell>
        <mxCell id="a-pU14ZPofYEpcfv-Zim-37" value="employees" style="text;html=1;align=center;verticalAlign=middle;resizable=0;points=[];autosize=1;strokeColor=none;fillColor=none;" vertex="1" parent="1">
          <mxGeometry x="450" y="190" width="80" height="30" as="geometry" />
        </mxCell>
        <mxCell id="a-pU14ZPofYEpcfv-Zim-38" value="dependents" style="text;html=1;align=center;verticalAlign=middle;resizable=0;points=[];autosize=1;strokeColor=none;fillColor=none;" vertex="1" parent="1">
          <mxGeometry x="85" y="330" width="90" height="30" as="geometry" />
        </mxCell>
        <mxCell id="a-pU14ZPofYEpcfv-Zim-40" style="edgeStyle=orthogonalEdgeStyle;rounded=0;orthogonalLoop=1;jettySize=auto;html=1;exitX=0.5;exitY=0;exitDx=0;exitDy=0;" edge="1" parent="1" source="a-pU14ZPofYEpcfv-Zim-39">
          <mxGeometry relative="1" as="geometry">
            <mxPoint x="180" y="120" as="targetPoint" />
            <Array as="points">
              <mxPoint x="740" y="140" />
              <mxPoint x="181" y="140" />
            </Array>
          </mxGeometry>
        </mxCell>
        <mxCell id="a-pU14ZPofYEpcfv-Zim-39" value="dep_work_id" style="rounded=0;whiteSpace=wrap;html=1;" vertex="1" parent="1">
          <mxGeometry x="673" y="230" width="120" height="60" as="geometry" />
        </mxCell>
        <mxCell id="a-pU14ZPofYEpcfv-Zim-41" value="ginder" style="rounded=0;whiteSpace=wrap;html=1;" vertex="1" parent="1">
          <mxGeometry x="320" y="360" width="120" height="60" as="geometry" />
        </mxCell>
        <mxCell id="a-pU14ZPofYEpcfv-Zim-43" style="edgeStyle=orthogonalEdgeStyle;rounded=0;orthogonalLoop=1;jettySize=auto;html=1;exitX=0.5;exitY=0;exitDx=0;exitDy=0;" edge="1" parent="1" source="a-pU14ZPofYEpcfv-Zim-42">
          <mxGeometry relative="1" as="geometry">
            <mxPoint x="170" y="300" as="targetPoint" />
          </mxGeometry>
        </mxCell>
        <mxCell id="a-pU14ZPofYEpcfv-Zim-42" value="emp_ssn" style="rounded=0;whiteSpace=wrap;html=1;" vertex="1" parent="1">
          <mxGeometry x="425" y="360" width="120" height="60" as="geometry" />
        </mxCell>
        <mxCell id="a-pU14ZPofYEpcfv-Zim-44" value="projects" style="text;html=1;align=center;verticalAlign=middle;resizable=0;points=[];autosize=1;strokeColor=none;fillColor=none;" vertex="1" parent="1">
          <mxGeometry x="90" y="440" width="70" height="30" as="geometry" />
        </mxCell>
        <mxCell id="a-pU14ZPofYEpcfv-Zim-45" value="" style="endArrow=none;html=1;rounded=0;" edge="1" parent="1">
          <mxGeometry width="50" height="50" relative="1" as="geometry">
            <mxPoint x="115.5" y="510" as="sourcePoint" />
            <mxPoint x="165.5" y="510" as="targetPoint" />
          </mxGeometry>
        </mxCell>
        <mxCell id="a-pU14ZPofYEpcfv-Zim-46" value="" style="endArrow=none;html=1;rounded=0;" edge="1" parent="1">
          <mxGeometry width="50" height="50" relative="1" as="geometry">
            <mxPoint x="235.5" y="510" as="sourcePoint" />
            <mxPoint x="285.5" y="510" as="targetPoint" />
          </mxGeometry>
        </mxCell>
        <mxCell id="a-pU14ZPofYEpcfv-Zim-47" value="pnum" style="rounded=0;whiteSpace=wrap;html=1;" vertex="1" parent="1">
          <mxGeometry x="200" y="470" width="120" height="60" as="geometry" />
        </mxCell>
        <mxCell id="a-pU14ZPofYEpcfv-Zim-48" value="" style="endArrow=none;html=1;rounded=0;" edge="1" parent="1">
          <mxGeometry width="50" height="50" relative="1" as="geometry">
            <mxPoint x="355.5" y="510" as="sourcePoint" />
            <mxPoint x="405.5" y="510" as="targetPoint" />
          </mxGeometry>
        </mxCell>
        <mxCell id="a-pU14ZPofYEpcfv-Zim-49" value="location" style="rounded=0;whiteSpace=wrap;html=1;" vertex="1" parent="1">
          <mxGeometry x="320" y="470" width="120" height="60" as="geometry" />
        </mxCell>
        <mxCell id="a-pU14ZPofYEpcfv-Zim-50" value="city" style="rounded=0;whiteSpace=wrap;html=1;" vertex="1" parent="1">
          <mxGeometry x="440" y="470" width="120" height="60" as="geometry" />
        </mxCell>
        <mxCell id="a-pU14ZPofYEpcfv-Zim-53" style="edgeStyle=orthogonalEdgeStyle;rounded=0;orthogonalLoop=1;jettySize=auto;html=1;exitX=0.5;exitY=0;exitDx=0;exitDy=0;entryX=0.5;entryY=0;entryDx=0;entryDy=0;" edge="1" parent="1" source="a-pU14ZPofYEpcfv-Zim-52" target="a-pU14ZPofYEpcfv-Zim-1">
          <mxGeometry relative="1" as="geometry">
            <mxPoint x="150" y="20" as="targetPoint" />
            <Array as="points">
              <mxPoint x="620" y="316" />
              <mxPoint x="831" y="316" />
              <mxPoint x="831" y="20" />
              <mxPoint x="150" y="20" />
            </Array>
          </mxGeometry>
        </mxCell>
        <mxCell id="a-pU14ZPofYEpcfv-Zim-52" value="dep_id" style="rounded=0;whiteSpace=wrap;html=1;" vertex="1" parent="1">
          <mxGeometry x="560" y="470" width="120" height="60" as="geometry" />
        </mxCell>
        <mxCell id="a-pU14ZPofYEpcfv-Zim-63" style="edgeStyle=orthogonalEdgeStyle;rounded=0;orthogonalLoop=1;jettySize=auto;html=1;exitX=0;exitY=0.5;exitDx=0;exitDy=0;entryX=0;entryY=0.5;entryDx=0;entryDy=0;" edge="1" parent="1" source="a-pU14ZPofYEpcfv-Zim-54" target="a-pU14ZPofYEpcfv-Zim-11">
          <mxGeometry relative="1" as="geometry">
            <mxPoint x="50" y="500" as="targetPoint" />
            <Array as="points">
              <mxPoint x="51" y="590" />
              <mxPoint x="51" y="500" />
            </Array>
          </mxGeometry>
        </mxCell>
        <mxCell id="a-pU14ZPofYEpcfv-Zim-54" value="proj_id" style="rounded=0;whiteSpace=wrap;html=1;" vertex="1" parent="1">
          <mxGeometry x="80" y="560" width="120" height="60" as="geometry" />
        </mxCell>
        <mxCell id="a-pU14ZPofYEpcfv-Zim-55" value="" style="endArrow=none;html=1;rounded=0;" edge="1" parent="1">
          <mxGeometry width="50" height="50" relative="1" as="geometry">
            <mxPoint x="115.5" y="270" as="sourcePoint" />
            <mxPoint x="165.5" y="270" as="targetPoint" />
            <Array as="points">
              <mxPoint x="140" y="270" />
            </Array>
          </mxGeometry>
        </mxCell>
        <mxCell id="a-pU14ZPofYEpcfv-Zim-57" value="" style="endArrow=none;html=1;rounded=0;dashed=1;" edge="1" parent="1">
          <mxGeometry width="50" height="50" relative="1" as="geometry">
            <mxPoint x="113" y="604" as="sourcePoint" />
            <mxPoint x="163" y="604" as="targetPoint" />
          </mxGeometry>
        </mxCell>
        <mxCell id="a-pU14ZPofYEpcfv-Zim-58" value="" style="endArrow=none;html=1;rounded=0;" edge="1" parent="1">
          <mxGeometry width="50" height="50" relative="1" as="geometry">
            <mxPoint x="225" y="610" as="sourcePoint" />
            <mxPoint x="275" y="610" as="targetPoint" />
          </mxGeometry>
        </mxCell>
        <mxCell id="a-pU14ZPofYEpcfv-Zim-64" style="edgeStyle=orthogonalEdgeStyle;rounded=0;orthogonalLoop=1;jettySize=auto;html=1;exitX=0.5;exitY=1;exitDx=0;exitDy=0;entryX=0;entryY=0.75;entryDx=0;entryDy=0;" edge="1" parent="1" source="a-pU14ZPofYEpcfv-Zim-59" target="a-pU14ZPofYEpcfv-Zim-18">
          <mxGeometry relative="1" as="geometry">
            <mxPoint x="10" y="570" as="targetPoint" />
            <Array as="points">
              <mxPoint x="260" y="640" />
              <mxPoint x="10" y="640" />
              <mxPoint x="10" y="275" />
            </Array>
          </mxGeometry>
        </mxCell>
        <mxCell id="a-pU14ZPofYEpcfv-Zim-59" value="emp_id" style="rounded=0;whiteSpace=wrap;html=1;" vertex="1" parent="1">
          <mxGeometry x="200" y="560" width="120" height="60" as="geometry" />
        </mxCell>
        <mxCell id="a-pU14ZPofYEpcfv-Zim-60" value="" style="endArrow=none;dashed=1;html=1;dashPattern=1 3;strokeWidth=2;rounded=0;" edge="1" parent="1">
          <mxGeometry width="50" height="50" relative="1" as="geometry">
            <mxPoint x="241.5" y="600" as="sourcePoint" />
            <mxPoint x="281.5" y="600" as="targetPoint" />
          </mxGeometry>
        </mxCell>
        <mxCell id="a-pU14ZPofYEpcfv-Zim-61" value="" style="endArrow=none;html=1;rounded=0;entryX=0.833;entryY=0.833;entryDx=0;entryDy=0;entryPerimeter=0;" edge="1" parent="1" target="a-pU14ZPofYEpcfv-Zim-59">
          <mxGeometry width="50" height="50" relative="1" as="geometry">
            <mxPoint x="115.5" y="610" as="sourcePoint" />
            <mxPoint x="165.5" y="610" as="targetPoint" />
          </mxGeometry>
        </mxCell>
        <mxCell id="a-pU14ZPofYEpcfv-Zim-62" value="num_hours" style="rounded=0;whiteSpace=wrap;html=1;" vertex="1" parent="1">
          <mxGeometry x="320" y="560" width="120" height="60" as="geometry" />
        </mxCell>
      </root>
    </mxGraphModel>
  </diagram>
</mxfile>
